<?xml version="1.0" encoding="utf-8"?>
<!-- Generator: Adobe Illustrator 21.0.2, SVG Export Plug-In . SVG Version: 6.00 Build 0)  -->
<svg version="1.1" id="Layer_1" xmlns="http://www.w3.org/2000/svg" xmlns:xlink="http://www.w3.org/1999/xlink" x="0px" y="0px"
	 viewBox="0 0 47 47.6" style="enable-background:new 0 0 47 47.6;" xml:space="preserve">
<style type="text/css">
	.st0{fill:#F2545B;}
</style>
<title>Icon-Lounge</title>
<path class="st0" d="M7.8,0.4C15.1,1.3,22.1,2.2,29.3,3c0,1.3,0,2.7,0,4.2c2.3,0,4.4,0,6.6,0c0.6,0,1.3,0.2,1.7,0.5
	c5.4,4.8,8.5,10.8,9.3,18c0,0.3,0,0.5,0,0.9c-0.7,0-1.4,0-2.1,0c-0.5-4.8-2.1-9.1-4.8-13c-2-2.9-4.3-4.9-8.2-4.2
	c-0.7,0.1-1.5,0-2.3,0c-0.6,1.3-0.1,2,1,2.8c6.7,4.8,9.6,11.3,8.3,19.4c-1.3,7.7-5.8,13.1-13.4,15.4c-2.8,0.8-6.1,0.4-9.1,0.4
	c-1.6,0-3.3-0.3-4.8-1C4.6,43.2,0.5,37.6,0,29.8c-0.5-8.1,3-14.3,10-18.4c0.9-0.5,1.2-1.1,1.3-2.1c0.2-2.5-0.3-4.6-2-6.5
	C8.8,2.2,8.4,1.4,7.8,0.4z M34.2,19.8c0.1-0.2,0.2-0.3,0.4-0.5c-1.6-1.6-3.2-3.2-4.8-4.8c-1-1-2.2-1.3-3.7-1.2
	c-3.9,0.1-7.7,0.3-11.6,0c-3.2-0.3-5.4,1.2-7.4,3.3c-0.9,0.9-1.6,2-2.6,3.2C14.7,19.8,24.5,19.8,34.2,19.8z"/>
</svg>
