<?xml version="1.0" encoding="utf-8"?>
<!-- Generator: Adobe Illustrator 21.0.2, SVG Export Plug-In . SVG Version: 6.00 Build 0)  -->
<svg version="1.1" id="Layer_1" xmlns="http://www.w3.org/2000/svg" xmlns:xlink="http://www.w3.org/1999/xlink" x="0px" y="0px"
	 viewBox="0 0 27.4 34" style="enable-background:new 0 0 27.4 34;" xml:space="preserve">
<style type="text/css">
	.st0{fill:#F2545B;}
</style>
<title>Icon-Lounge</title>
<g>
	<path class="st0" d="M16.6,0c1.1,0.4,2.1,1.1,2.5,2.2C19.8,4,18.9,6,17.2,6.8c-1.7,0.7-3.7-0.1-4.5-1.8c-0.8-1.7-0.1-3.8,1.7-4.6
		c0.3-0.1,0.5-0.2,0.8-0.3C15.6,0,16.1,0,16.6,0z"/>
	<path class="st0" d="M17.5,21.1c-0.5,0.1-0.9,0.2-1.3,0.2c0.3,1.1,0.6,2.2,0.8,3.2c0.5,4.1-2.1,7.9-6,9.1C7,34.8,2.7,33,0.9,29.2
		c-1.8-3.7-0.7-8.2,2.6-10.6c0.6-0.4,0.7-0.7,0.6-1.4c-0.4-1.7-0.7-3.4-1.1-5.1c-0.2-1.2,0.2-2,1.4-2.3C7,9,9.6,8.3,12.3,7.4
		c0.8-0.2,1.5-0.1,2,0.5c0.6,0.6,0.6,1.3,0.3,2.1c-0.8,2.2-1.7,4.4-2.5,6.6c-0.1,0.3-0.2,0.6-0.3,1c0.8,0.5,1.5,0.8,2.5,0.6
		c1.2-0.3,2.5-0.5,3.8-0.8c1.4-0.2,2,0.2,2.5,1.4c0.9,2.7,1.8,5.5,2.7,8.2c0.1,0.3,0.2,0.5,0.3,0.9c0.5-0.2,1-0.4,1.4-0.6
		c1-0.3,2,0.1,2.3,1c0.4,0.9,0,1.9-1,2.3c-1,0.5-2,0.9-3.1,1.3c-1.2,0.5-2.2,0.1-2.6-1.2c-1-2.9-1.9-5.7-2.9-8.6
		C17.7,21.8,17.6,21.5,17.5,21.1z M7.7,17c0.1,0,0.2,0,0.3,0c0.6-1.6,1.3-3.3,1.9-5.1c-1.2,0.4-2.1,0.6-3.1,0.9
		C7.1,14.3,7.4,15.6,7.7,17z"/>
</g>
</svg>
