<svg id="Layer_1" data-name="Layer 1" xmlns="http://www.w3.org/2000/svg" viewBox="0 0 47.15 32.31"><defs><style>.cls-1{fill:#f2545b;}</style></defs><title>icon-microwave</title><path class="cls-1" d="M42.1,0H5A5,5,0,0,0,0,5V25.38a5,5,0,0,0,5,5H42.1a5,5,0,0,0,5-5V5A5,5,0,0,0,42.1,0ZM32.62,25.4H4.08v-21H32.62v21ZM38,25.09A2.09,2.09,0,1,1,40,23,2.09,2.09,0,0,1,38,25.09Zm0-5.7A2.09,2.09,0,1,1,40,17.3,2.09,2.09,0,0,1,38,19.39Zm0-5.7A2.09,2.09,0,1,1,40,11.6,2.09,2.09,0,0,1,38,13.7ZM44.43,25.4H42.87v-21h1.57Z"/><rect class="cls-1" x="5.8" y="31.26" width="5.44" height="1.05"/><rect class="cls-1" x="35.91" y="31.26" width="5.44" height="1.05"/></svg>