<?xml version="1.0" encoding="utf-8"?>
<!-- Generator: Adobe Illustrator 21.0.2, SVG Export Plug-In . SVG Version: 6.00 Build 0)  -->
<svg version="1.1" id="Layer_1" xmlns="http://www.w3.org/2000/svg" xmlns:xlink="http://www.w3.org/1999/xlink" x="0px" y="0px"
	 viewBox="0 0 28 37.9" style="enable-background:new 0 0 28 37.9;" xml:space="preserve">
<style type="text/css">
	.st0{fill:#F2545B;}
</style>
<title>Icon-Lounge</title>
<g>
	<path class="st0" d="M0,7.5c9.4,0,18.6,0,28,0c0,0.7,0,1.2,0,1.7c0,8.7,0,17.5,0,26.2c0,2.2-0.2,2.4-2.3,2.4c-7.8,0-15.6,0-23.3,0
		c-2.1,0-2.3-0.2-2.3-2.3C0,26.7,0,17.9,0,9C0,8.6,0,8.2,0,7.5z M14.1,27.7c3.4,0,6.3-2.9,6.3-6.3c0-3.4-2.9-6.3-6.3-6.3
		c-3.5,0-6.4,2.9-6.4,6.4C7.7,24.9,10.6,27.7,14.1,27.7z M23.2,23.1c-1.2-0.6-1.4,0.3-1.7,1.1c-1.7,4.2-6.2,6.2-10.3,4.7
		c-4.1-1.5-6.3-6.1-4.8-10.3c1.1-3.1,4.1-5.3,7.4-5.4c3.5-0.1,6.5,1.9,7.8,5.2c0.3,0.8,0.5,1.7,1.7,1c-0.9-4.9-5.4-8.1-10.5-7.5
		c-4.7,0.5-8.3,4.8-8.2,9.7c0.1,5,4,9,9,9.2C18.3,31.1,22.6,27.6,23.2,23.1z"/>
	<path class="st0" d="M28,5.8c-9.4,0-18.6,0-28,0c0-1.6-0.1-3,0-4.5C0.1,0.1,1.1,0,2,0c3.8,0,7.6,0,11.4,0c4.1,0,8.2,0,12.2,0
		C27.8,0,28,0.2,28,2.4C28,3.5,28,4.6,28,5.8z M2.7,4c2.3,0,4.7,0,7.1,0c0-0.6,0-1.2,0-1.9c-2.4,0-4.7,0-7.1,0
		C2.7,2.8,2.7,3.4,2.7,4z M20.7,1.6c-0.4,0.7-0.9,1.2-0.9,1.5c0,0.3,0.7,0.9,0.9,0.9c0.4-0.1,1-0.6,1-1C21.8,2.8,21.2,2.3,20.7,1.6z
		 M24.9,1.6c-0.5,0.7-1.1,1.1-1,1.4c0,0.4,0.6,0.9,1,1c0.2,0.1,0.9-0.5,0.9-0.9C25.8,2.8,25.3,2.4,24.9,1.6z M16.7,4.6
		c0.5-0.7,1-1.1,1-1.5c0-0.4-0.6-0.8-1.1-0.9c-0.2,0-0.8,0.6-0.8,0.9C15.8,3.5,16.2,3.9,16.7,4.6z"/>
</g>
</svg>
