<?xml version="1.0" encoding="utf-8"?>
<!-- Generator: Adobe Illustrator 21.0.2, SVG Export Plug-In . SVG Version: 6.00 Build 0)  -->
<svg version="1.1" id="Layer_1" xmlns="http://www.w3.org/2000/svg" xmlns:xlink="http://www.w3.org/1999/xlink" x="0px" y="0px"
	 viewBox="0 0 27.4 27.5" style="enable-background:new 0 0 27.4 27.5;" xml:space="preserve">
<style type="text/css">
	.st0{fill:#F2545B;}
</style>
<title>Icon-Lounge</title>
<g>
	<path class="st0" d="M13.7,27.5C6.1,27.5,0,21.3,0,13.7C0,6.1,6.1,0,13.7,0c7.6,0,13.7,6.1,13.7,13.7
		C27.5,21.2,21.3,27.4,13.7,27.5z M16.1,9.5c0-3.2-2.6-5.8-5.8-5.8c-3.2,0-5.8,2.6-5.8,5.8c0,3.2,2.6,5.8,5.8,5.8
		C13.6,15.3,16.1,12.7,16.1,9.5z"/>
	<path class="st0" d="M9.9,11.7c-0.8,0-1.5-0.5-1.7-1.2C7.9,9.8,8.2,9,8.8,8.4C9,8.2,9.1,7.9,9.3,7.6c0.3-0.4,0.6-0.9,1-1
		c0.4-0.1,1.1,0.2,1.3,0.5c0.2,0.3,0.1,0.9,0.1,1.4c0,0.3-0.1,0.6-0.1,0.9C12,10.6,11.1,11.7,9.9,11.7z M9.9,8.8
		c-0.6,0-1.1,0.5-1.2,1.1c0,0.6,0.4,1.1,1.1,1.2c0.6,0,1.2-0.5,1.2-1.1C11.1,9.3,10.5,8.8,9.9,8.8z M10.6,8.6c0.3-0.5,0.7-0.7,0.7-1
		c0-0.2-0.4-0.6-0.7-0.6C10.5,7,10,7.4,10,7.7C10,7.9,10.3,8.2,10.6,8.6z"/>
</g>
</svg>
