<?xml version="1.0" encoding="utf-8"?>
<!-- Generator: Adobe Illustrator 21.0.2, SVG Export Plug-In . SVG Version: 6.00 Build 0)  -->
<svg version="1.1" id="Layer_1" xmlns="http://www.w3.org/2000/svg" xmlns:xlink="http://www.w3.org/1999/xlink" x="0px" y="0px"
	 viewBox="0 0 27.4 27.5" style="enable-background:new 0 0 27.4 27.5;" xml:space="preserve">
<style type="text/css">
	.st0{fill:#F2545B;}
</style>
<title>Icon-Lounge</title>
<g>
	<path class="st0" d="M19.2,9.4c0.5,0.5,0.9,1,1.3,1.5c-2.4,3.5-4.9,6.9-7.3,10.4c-0.2,0.3-0.4,0.5-0.6,0.8c-0.5,0.7-1.1,1.2-2,1
		c-0.9-0.2-1.7-1-1.8-1.9c-0.1-0.8,0-1.5,0.5-2C12.7,15.9,15.9,12.7,19.2,9.4z"/>
	<path class="st0" d="M15.6,5.8c-0.2,0.2-0.4,0.3-0.6,0.4c-3.5,2.4-7,4.9-10.5,7.3c-1.1,0.8-2.5,0.8-3.7,0c-1.3-0.9-1.2-2.2,0.2-2.9
		c4.2-2,8.5-4,12.7-6.1c0.4-0.2,0.6-0.2,0.9,0.2C15,5.1,15.3,5.4,15.6,5.8z"/>
	<path class="st0" d="M21.7,11.8C21.7,11.8,21.7,11.8,21.7,11.8c1.4,1.2,1.4,1.2,0.6,2.8c-1.9,3.9-3.8,7.8-5.6,11.7
		c-0.3,0.6-0.5,1.1-1.3,1.2c-0.7,0-1.2-0.4-1.6-1c-0.7-1.1-0.8-2.3,0-3.4c2.6-3.7,5.2-7.4,7.8-11C21.6,12,21.6,11.9,21.7,11.8z"/>
	<path class="st0" d="M16.8,6.9c0.5,0.4,0.9,0.9,1.4,1.3c-0.1,0.2-0.3,0.3-0.4,0.4c-3.1,3.1-6.1,6.1-9.2,9.2
		c-1.1,1.1-3.1,0.8-3.8-0.5c-0.4-0.8-0.3-1.8,0.4-2.3C9,12.3,12.9,9.6,16.8,6.9z"/>
	<path class="st0" d="M18.3,0.9c2.2-1.5,5.4-1.2,7.4,0.9c2,2,2.3,5.1,0.8,7.3C23.8,6.4,21,3.7,18.3,0.9z"/>
	<path class="st0" d="M25.3,10.6c-0.4,0.4-0.8,0.9-1.2,1.3c-2.8-2.8-5.6-5.7-8.5-8.5C16,3,16.4,2.6,16.8,2.1
		C19.7,5,22.5,7.8,25.3,10.6z"/>
</g>
</svg>
