<?xml version="1.0" encoding="utf-8"?>
<!-- Generator: Adobe Illustrator 21.0.2, SVG Export Plug-In . SVG Version: 6.00 Build 0)  -->
<svg version="1.1" id="Layer_1" xmlns="http://www.w3.org/2000/svg" xmlns:xlink="http://www.w3.org/1999/xlink" x="0px" y="0px"
	 viewBox="0 0 31.9 14" style="enable-background:new 0 0 31.9 14;" xml:space="preserve">
<style type="text/css">
	.st0{fill:#F2545B;}
</style>
<title>Icon-Lounge</title>
<g>
	<path class="st0" d="M6.3,0C7.7,0,9,0,10.4,0c0,1.7,0,3.5,0,5.3c3.8,0,7.4,0,11.2,0c0-1.7,0-3.5,0-5.2c1.4,0,2.7,0,4.1,0
		c0,1.5,0,3.1,0,4.6c0,0.2,0.2,0.5,0.3,0.7c0.1,0,0.2-0.1,0.3-0.1c0-1.7,0-3.4,0-5.2c1.4,0,2.6,0,4,0c0,1.1,0,2.2,0,3.4
		C31.8,3.7,32,4.8,31.9,6c0,0.8,0,1.7,0,2.5c0,1.3-0.2,1.7-1.5,2.2c0,1.1,0,2.2,0,3.3c-1.4,0-2.7,0-4.1,0c0-1.5,0-2.9,0-4.3
		c0-0.3-0.2-0.6-0.3-0.9c-0.1,0.3-0.3,0.6-0.3,0.9c0,1.4,0,2.9,0,4.4c-1.4,0-2.7,0-4,0c0-1.7,0-3.5,0-5.2c-3.8,0-7.4,0-11.2,0
		c0,1.7,0,3.4,0,5.2c-1.4,0-2.7,0-4.1,0c0-1.7,0-3.4,0-5.1C5.6,8.7,5.6,8.7,5.6,9.3c0,1.2,0,2.5,0,3.7c0,0.3,0,0.6,0,0.9
		c-1.3,0-2.6,0-4,0c0-1.1,0-2.2,0-3.4C0.1,10.4-0.1,9.3,0,8.1c0-0.9,0-1.7,0-2.6c0-1.3,0.2-1.6,1.5-2.2c0-1.1,0-2.2,0-3.3
		c1.3,0,2.6,0,4.1,0c0,1.5,0,3,0,4.6c0,0.3,0.2,0.5,0.4,0.8c0.1,0,0.2-0.1,0.3-0.1C6.3,3.5,6.3,1.8,6.3,0z"/>
</g>
</svg>
