<?xml version="1.0" encoding="utf-8"?>
<!-- Generator: Adobe Illustrator 21.0.2, SVG Export Plug-In . SVG Version: 6.00 Build 0)  -->
<svg version="1.1" id="Layer_1" xmlns="http://www.w3.org/2000/svg" xmlns:xlink="http://www.w3.org/1999/xlink" x="0px" y="0px"
	 viewBox="0 0 47.3 38.4" style="enable-background:new 0 0 47.3 38.4;" xml:space="preserve">
<style type="text/css">
	.st0{fill:#F2545B;}
</style>
<title>Icon-Lounge</title>
<g>
	<path class="st0" d="M23.8,23.5c4.1,0.1,8.1,0.5,11.8,2.4C37.8,27,40,28.2,40,31c0,2.6-2.1,4-4.3,4.9c-7.9,3.3-15.9,3.3-23.8,0
		c-2.1-0.9-4.2-2.3-4.2-4.9c0-2.7,2.1-3.9,4.2-5C15.6,24.1,19.7,23.6,23.8,23.5z"/>
	<path class="st0" d="M33.1,21.7c0.6-3.3,3.4-5.5,6.8-5.5c3.6,0,6.8,2.2,7.2,5.7c0.4,2.9,0.1,5.8,0.1,8.9c-1.3,0-2.6,0-4.1,0
		C42.2,25.2,37.7,23.3,33.1,21.7z"/>
	<path class="st0" d="M14.6,21.7c-4.7,1.6-9.1,3.4-10.1,9.1c-1.3,0-2.7,0-4.5,0c0.3-3.3,0.1-6.7,0.8-9.9c0.7-3.1,3.8-4.8,7.1-4.7
		C11.1,16.3,13.6,18.3,14.6,21.7z"/>
	<path class="st0" d="M31.1,20.9c-4.8,0-9.6,0-14.5,0c-0.7-2.8,0.4-5.9,2.8-7.7c2.4-1.8,5.7-1.9,8.3-0.4
		C30.4,14.5,31.6,17.5,31.1,20.9z"/>
	<path class="st0" d="M3.2,8.6c0.1-2.4,2.2-4.3,4.5-4.2c2.4,0.1,4.3,2.2,4.3,4.6c-0.1,2.5-2.2,4.4-4.7,4.2
		C4.9,13.1,3.1,11.1,3.2,8.6z"/>
	<path class="st0" d="M44.4,8.9c0,2.5-1.9,4.3-4.4,4.3c-2.4,0-4.4-2-4.4-4.4c0-2.4,2.1-4.5,4.6-4.4C42.5,4.4,44.4,6.4,44.4,8.9z"/>
	<path class="st0" d="M19.4,4.3c0-2.4,1.9-4.3,4.4-4.3c2.5,0,4.5,2,4.4,4.5c-0.1,2.4-2.1,4.4-4.5,4.3C21.3,8.8,19.4,6.7,19.4,4.3z"
		/>
</g>
</svg>
