<?xml version="1.0" encoding="utf-8"?>
<!-- Generator: Adobe Illustrator 21.0.2, SVG Export Plug-In . SVG Version: 6.00 Build 0)  -->
<svg version="1.1" id="Layer_1" xmlns="http://www.w3.org/2000/svg" xmlns:xlink="http://www.w3.org/1999/xlink" x="0px" y="0px"
	 viewBox="0 0 49.2 38.4" style="enable-background:new 0 0 49.2 38.4;" xml:space="preserve">
<style type="text/css">
	.st0{fill:#F2545B;}
</style>
<title>Icon-Lounge</title>
<path class="st0" d="M29.7,31.9c0,1.7,0,3.2,0,4.9c1.3,0,2.6-0.1,3.8,0c0.4,0,0.7,0.5,1.1,0.7c-0.3,0.3-0.7,0.8-1,0.8
	c-5.9,0.1-11.7,0.1-17.6,0c-0.4,0-0.7-0.5-1.1-0.8c0.3-0.3,0.7-0.7,1-0.8c1.2-0.1,2.4,0,3.8,0c0-1.6,0-3.1,0-4.9c-0.5,0-1,0-1.5,0
	c-5.2,0-10.4,0-15.6,0c-2.2,0-2.7-0.5-2.7-2.7c0-8.9,0-17.7,0-26.6C0,0.5,0.5,0,2.6,0c14.7,0,29.4,0,44,0c2.1,0,2.6,0.5,2.6,2.6
	c0,8.9,0,17.7,0,26.6c0,2.1-0.5,2.6-2.6,2.6c-5.1,0-10.2,0-15.3,0C30.8,31.9,30.3,31.9,29.7,31.9z"/>
</svg>
