<?xml version="1.0" encoding="utf-8"?>
<!-- Generator: Adobe Illustrator 21.0.2, SVG Export Plug-In . SVG Version: 6.00 Build 0)  -->
<svg version="1.1" id="Layer_1" xmlns="http://www.w3.org/2000/svg" xmlns:xlink="http://www.w3.org/1999/xlink" x="0px" y="0px"
	 viewBox="0 0 30.6 30.5" style="enable-background:new 0 0 30.6 30.5;" xml:space="preserve">
<style type="text/css">
	.st0{fill:#F2545B;}
</style>
<title>Icon-Lounge</title>
<g>
	<path class="st0" d="M14.7,30.5c0.8-0.4,1.1-1.1,1.1-2.1c-0.1-2.4,0-4.7,0-7.1c0-0.7-0.2-1.2-0.7-1.7c-1-1.1-2-2.2-3.1-3.3
		c-0.3-0.3-0.5-0.7-0.3-1.2c0.2-1,0.4-2,0.7-3.2c0.4,0.8,0.7,1.4,1,2.1c0.3,0.6,0.6,0.9,1.3,1c1.4,0.2,2.7,0.5,4.1,0.8
		c1,0.2,1.6-0.4,1.6-1.5c0-0.2,0.1-0.5,0.3-0.7c0.8-0.6,1.7-1.2,2.5-1.8c0.7-0.5,1.5-0.4,2.3-0.2c1.3,0.3,2.4,0,3.4-0.8
		c0.9-0.7,1.4-1.6,1.6-2.7c0-0.3,0-0.5,0-0.8c-0.8-1.8-1.8-2.5-3.5-2.3c-1.7,0.2-3.4,1.7-3.5,3.3c-0.1,1.4-0.8,2.3-1.9,3.2
		c-1.6,1.3-3.2,1.7-5.1,1.1c-0.7-0.2-1.2-0.5-1.5-1.2c-0.6-1.3-1.3-2.6-1.9-3.9C12.3,6.2,10.4,5,8.4,6.4C7.2,7.2,5.8,7.8,4.6,8.6
		c-0.5,0.3-1,0.8-1.3,1.3c-0.7,1.2-1.3,2.5-2,3.7c-0.5,0.9-0.3,1.6,0.4,2c0.7,0.4,1.4,0.1,1.9-0.8c0.5-1,1.1-2,1.6-3
		c0.3-0.7,0.9-1.1,1.7-1.5c-0.3,1.2-0.6,2.4-0.8,3.6c-0.5,2.8-1,5.6-1.5,8.4c-0.1,0.4-0.2,0.7-0.5,1c-1,1.2-2.1,2.4-3.1,3.7
		c-0.4,0.4-0.7,0.9-1,1.4c0,0.2,0,0.4,0,0.6c0.8,1.6,1.9,1.7,3.1,0.3c1.4-1.7,2.9-3.4,4.3-5.1c0.4-0.5,0.7-1.2,0.8-1.8
		c0.3-1.2,0.5-2.5,0.7-3.9c1.3,1.4,2.5,2.6,3.6,3.9c0.1,0.1,0.1,0.4,0.1,0.6c0,1.9,0,3.7,0,5.6c0,0.9,0.3,1.6,1.1,2.1
		C14.1,30.5,14.4,30.5,14.7,30.5z M29.5,8.1c0,1.6-1.9,3.2-3.5,2.9c-1.2-0.2-1.8-1.2-1.5-2.4c0.4-1.3,1.7-2.3,3-2.2
		C28.7,6.3,29.5,7.1,29.5,8.1z"/>
	<path class="st0" d="M10.7,0C9.2,0.7,8.6,1.6,8.8,2.8C8.9,4,9.9,5,11.1,5c1.2,0.1,2.3-0.7,2.6-1.8c0.4-1.2-0.2-2.4-1.3-3
		c-0.2-0.1-0.3-0.2-0.5-0.3C11.5,0,11.1,0,10.7,0z"/>
	<path class="st0" d="M26.3,15.9c0,0.6,0.5,1.2,1.2,1.2c0.6,0,1.1-0.5,1.1-1.2c0-0.7-0.5-1.1-1.1-1.1C26.8,14.8,26.3,15.3,26.3,15.9
		z"/>
</g>
</svg>
