<svg id="Layer_1" data-name="Layer 1" xmlns="http://www.w3.org/2000/svg" viewBox="0 0 35.65 34.41"><defs><style>.cls-1{fill:#f2545b;}</style></defs><title>icon-desk</title><path class="cls-1" d="M34.72,15.71H32.4V6.3a.93.93,0,0,0-.27-.66l-2-2a4,4,0,0,0-6.8-2.5.93.93,0,0,0,0,1.32l4.33,4.33a.93.93,0,0,0,1.32,0,4,4,0,0,0,.71-1l.83.83v9H13v-2.5h7.58a.93.93,0,0,0,.93-.93v-11a.93.93,0,0,0-.93-.93h-17a.93.93,0,0,0-.93.93v11a.93.93,0,0,0,.93.93h7.58v2.5H.93a.93.93,0,0,0-.93.93v3.42A.93.93,0,0,0,.93,21H3.25V34.41H5.11V21h15V31.31a.93.93,0,0,0,.93.93h9.49v2.17h1.86V21h2.32a.93.93,0,0,0,.93-.93V16.64A.93.93,0,0,0,34.72,15.71Zm-15-13.5V7.75H4.52V2.22ZM22,30.38V26.61h8.56v3.76Zm8.56-5.62H22V21h8.56Z"/></svg>