<?xml version="1.0" encoding="utf-8"?>
<!-- Generator: Adobe Illustrator 21.0.2, SVG Export Plug-In . SVG Version: 6.00 Build 0)  -->
<svg version="1.1" id="Layer_1" xmlns="http://www.w3.org/2000/svg" xmlns:xlink="http://www.w3.org/1999/xlink" x="0px" y="0px"
	 viewBox="0 0 28.1 17.8" style="enable-background:new 0 0 28.1 17.8;" xml:space="preserve">
<style type="text/css">
	.st0{fill:#F2545B;}
</style>
<title>Icon-Lounge</title>
<g>
	<path class="st0" d="M4.4,13.7c2.5-1.5,5.1-3,7.7-4.5c-1-1.5-2.1-3-3.1-4.6c3.4-1.5,6.8-3,10.2-4.6c0.3,0.7,0.5,1.3,0.7,2
		c-2.1,1.1-4.1,2.2-6.1,3.4c1.7,3.1,3,6.3,5.8,8.7c0,0.1-0.1,0.2-0.1,0.3c-0.5-0.1-1.1,0-1.6-0.2c-1.3-0.6-2.6-0.5-4-0.1
		c-1,0.3-2,0.4-3,0c-1.1-0.4-2.2-0.4-3.3,0c-0.5,0.2-1.1,0.3-1.6,0.3c-0.5,0-1-0.2-1.5-0.3C4.4,13.8,4.4,13.8,4.4,13.7z"/>
	<path class="st0" d="M0,17.8c0-0.9,0-1.6,0-2.3c0.8-0.2,1.5-0.5,2.3-0.6c0.7-0.1,1.4,0,2.1,0.2c1,0.3,2,0.4,3,0
		c1-0.4,1.9-0.4,2.9,0c1,0.4,2.1,0.4,3.1,0c1-0.4,2-0.4,3,0c0.9,0.3,1.8,0.4,2.7,0c1.1-0.4,2.2-0.4,3.3,0c0.9,0.4,1.9,0.2,2.8,0
		c0.7-0.2,1.5-0.2,2.2-0.2c0.4,0,0.6,0.2,0.6,0.7c0,0.6,0,1.1,0,1.8c-1.4-0.5-2.6,0-3.8,0.3c-0.5,0.1-1.2,0-1.8-0.2
		c-0.9-0.3-1.8-0.4-2.7,0c-1.2,0.4-2.3,0.4-3.5,0c-1-0.4-2-0.4-3,0c-0.9,0.4-1.8,0.4-2.6,0c-1.2-0.5-2.4-0.4-3.6,0
		c-0.7,0.2-1.7,0.2-2.4,0c-1.2-0.4-2.4-0.5-3.6,0.1C0.8,17.7,0.4,17.7,0,17.8z"/>
	<path class="st0" d="M21.5,5.3c1.9,0,3.4,1.5,3.4,3.4c0,1.9-1.5,3.4-3.4,3.4c-1.9,0-3.5-1.5-3.5-3.4C18.1,6.9,19.6,5.3,21.5,5.3z"
		/>
</g>
</svg>
