<svg xmlns="http://www.w3.org/2000/svg" width="33.625" height="39.094" viewBox="0 0 33.625 39.094">
  <defs>
    <style>
      .cls-1 {
        fill: #fff;
        fill-rule: evenodd;
      }
    </style>
  </defs>
  <path id="scroll_down" data-name="scroll down" class="cls-1" d="M732.994,737.6l1.613-1.6L746.5,747.8,758.39,736,760,737.6,746.5,751Zm0.916-19.615a2.607,2.607,0,0,1-1.709.528,3.587,3.587,0,0,1-2.162-.708,0.106,0.106,0,0,1-.019-0.17l0.567-.727a0.107,0.107,0,0,1,.17-0.019,4.909,4.909,0,0,0,.519.359,2.046,2.046,0,0,0,.925.2q1.17,0,1.171-.849a0.728,0.728,0,0,0-.548-0.661q-0.274-.094-0.547-0.179l-0.548-.17a5.57,5.57,0,0,1-.647-0.26,3.332,3.332,0,0,1-.41-0.231,1.672,1.672,0,0,1-.718-1.435,1.513,1.513,0,0,1,.614-1.27,2.837,2.837,0,0,1,1.746-.467,3.578,3.578,0,0,1,1.879.557,0.1,0.1,0,0,1,.028.16l-0.51.765a0.114,0.114,0,0,1-.16.038,2.265,2.265,0,0,0-1.246-.453q-1.18,0-1.18.67a0.71,0.71,0,0,0,.472.6,9.771,9.771,0,0,0,1.067.378,3.785,3.785,0,0,1,1.331.651,1.671,1.671,0,0,1,.557,1.3A1.711,1.711,0,0,1,733.91,717.982Zm6.627-.142a3.115,3.115,0,0,1-2.021.68,3.253,3.253,0,0,1-2.35-.954,3.292,3.292,0,0,1,.009-4.682,3.213,3.213,0,0,1,2.341-.972,3.6,3.6,0,0,1,2.021.67,0.1,0.1,0,0,1,.028.16l-0.482.737a0.1,0.1,0,0,1-.16.028,2.584,2.584,0,0,0-1.407-.5,2.02,2.02,0,0,0-1.51.66,2.114,2.114,0,0,0-.633,1.539,2.183,2.183,0,0,0,.624,1.567,2.074,2.074,0,0,0,1.519.642,2.152,2.152,0,0,0,.907-0.179c0.018-.013.07-0.044,0.155-0.1l0.354-.207a0.091,0.091,0,0,1,.151.037l0.491,0.708a0.108,0.108,0,0,1-.037.161h0Zm5.72-2.5a1.96,1.96,0,0,1-1.123.708l1.369,2.228c0.062,0.1.044,0.151-.057,0.151H745.37a0.208,0.208,0,0,1-.189-0.113L743.84,716.1h-1.132v2.209a0.1,0.1,0,0,1-.114.113h-0.915a0.1,0.1,0,0,1-.114-0.113v-6.2a0.1,0.1,0,0,1,.114-0.113h3a1.928,1.928,0,0,1,1.425.6,2.075,2.075,0,0,1,.151,2.737h0Zm-1.1-2.058a1.107,1.107,0,0,0-.718-0.273h-1.727v2.086H744.4a1.233,1.233,0,0,0,.775-0.283,0.948,0.948,0,0,0,.358-0.756,0.967,0.967,0,0,0-.377-0.774h0Zm7.957,4.286a3.271,3.271,0,0,1-2.369.944,3.305,3.305,0,0,1-2.379-.944,3.315,3.315,0,0,1,0-4.71,3.329,3.329,0,0,1,2.379-.954,3.264,3.264,0,0,1,2.36.944,3.213,3.213,0,0,1,.991,2.37,3.144,3.144,0,0,1-.982,2.35h0Zm-0.821-3.917a2.143,2.143,0,0,0-3.1,0,2.221,2.221,0,0,0,0,3.124,2.164,2.164,0,0,0,3.1,0,2.159,2.159,0,0,0,.642-1.557,2.192,2.192,0,0,0-.642-1.567h0Zm6.551,4.776h-3.521a0.1,0.1,0,0,1-.113-0.113v-6.2a0.1,0.1,0,0,1,.113-0.113h0.916a0.1,0.1,0,0,1,.113.113v5.3h2.492a0.1,0.1,0,0,1,.114.113v0.793a0.1,0.1,0,0,1-.114.113h0Zm4.626,0h-3.521a0.1,0.1,0,0,1-.114-0.113v-6.2a0.1,0.1,0,0,1,.114-0.113h0.915a0.1,0.1,0,0,1,.114.113v5.3h2.492a0.1,0.1,0,0,1,.113.113v0.793a0.1,0.1,0,0,1-.113.113h0Zm-26.54,10.4a3.253,3.253,0,0,1-2.322.925h-2.351a0.1,0.1,0,0,1-.113-0.113v-6.2a0.1,0.1,0,0,1,.113-0.113h2.435a3.079,3.079,0,0,1,2.276.934,3.136,3.136,0,0,1,.925,2.275,3.033,3.033,0,0,1-.963,2.294h0Zm-0.916-3.936a2.525,2.525,0,0,0-1.775-.567h-0.953v4.39h1.246a2.177,2.177,0,0,0,2.19-2.181,2.174,2.174,0,0,0-.708-1.642h0Zm8.345,4a3.457,3.457,0,0,1-4.748,0,3.315,3.315,0,0,1,0-4.71,3.329,3.329,0,0,1,2.378-.954,3.262,3.262,0,0,1,2.36.944,3.214,3.214,0,0,1,.992,2.37,3.148,3.148,0,0,1-.982,2.35h0Zm-0.821-3.917a2.144,2.144,0,0,0-3.1,0,2.221,2.221,0,0,0,0,3.124,2.165,2.165,0,0,0,3.1,0,2.159,2.159,0,0,0,.642-1.557,2.192,2.192,0,0,0-.642-1.567h0Zm9.458,4.663a0.166,0.166,0,0,1-.151.142h-1.057a0.151,0.151,0,0,1-.132-0.142l-1.341-4.135-1.34,4.135a0.165,0.165,0,0,1-.142.142h-1a0.178,0.178,0,0,1-.142-0.142l-1.992-6.146a0.133,0.133,0,0,1,.019-0.118,0.122,0.122,0,0,1,.1-0.051h0.944a0.164,0.164,0,0,1,.142.141l1.416,4.692,1.425-4.692a0.15,0.15,0,0,1,.132-0.141h0.906a0.162,0.162,0,0,1,.133.141l1.425,4.692,1.416-4.692a0.152,0.152,0,0,1,.142-0.141h0.963a0.122,0.122,0,0,1,.1.051,0.13,0.13,0,0,1,.019.118Zm8.147,0.113H760.3a0.1,0.1,0,0,1-.085-0.038l-3.427-4.474v4.4a0.1,0.1,0,0,1-.113.113h-0.84a0.1,0.1,0,0,1-.114-0.113v-6.2a0.1,0.1,0,0,1,.114-0.113h0.84a0.161,0.161,0,0,1,.113.056l3.4,4.446v-4.389a0.1,0.1,0,0,1,.113-0.113h0.84a0.1,0.1,0,0,1,.123.113v6.2a0.1,0.1,0,0,1-.123.113h0Z" transform="translate(-729.969 -711.906)"/>
</svg>
