<svg xmlns="http://www.w3.org/2000/svg" width="40.906" height="41.06" viewBox="0 0 40.906 41.06">
  <defs>
    <style>
      .cls-1 {
        fill: #f2545b;
        fill-rule: evenodd;
      }
    </style>
  </defs>
  <path id="icon-kitchen" class="cls-1" d="M630.189,4892.79h-8.742a1.435,1.435,0,0,0,0-2.87h-3.575a1.435,1.435,0,0,0,0,2.87h-8.743c-2.432,0-4.446,2.19-4.838,4.52H635.03C634.637,4894.98,632.623,4892.79,630.189,4892.79Zm4.912,6.98v-0.41H599.088v2.06h5.13v12.73a4.923,4.923,0,0,0,4.911,4.93H630.19a4.922,4.922,0,0,0,4.912-4.93v-12.32h4.913v-2.06H635.1Zm-22.958-16.83c0.143,0.18.295,0.37,0.454,0.54l0.4,0.4a9.511,9.511,0,0,1,.67.73,2.823,2.823,0,0,1,.226.31,0.618,0.618,0,0,1,.116.26,0.629,0.629,0,0,1-.154.41,2.632,2.632,0,0,1-.45.43,1.5,1.5,0,0,0,.7.08,1.236,1.236,0,0,0,.753-0.38,1.5,1.5,0,0,0,.373-0.91,2.5,2.5,0,0,0-.1-0.85,4.532,4.532,0,0,0-.633-1.31c-0.126-.18-0.283-0.37-0.395-0.52a4.356,4.356,0,0,1-.309-0.4,3.844,3.844,0,0,1-.751-1.58,3.969,3.969,0,0,1,.356-2.15,2.647,2.647,0,0,0-1.952,1.99,3.2,3.2,0,0,0,.037,1.59A4.424,4.424,0,0,0,612.143,4882.94Zm5.308,0c0.142,0.18.3,0.37,0.454,0.54l0.395,0.4c0.25,0.25.483,0.5,0.673,0.73a3.415,3.415,0,0,1,.224.31,0.569,0.569,0,0,1,.114.26,0.615,0.615,0,0,1-.152.41,2.509,2.509,0,0,1-.452.43,1.51,1.51,0,0,0,.705.08,1.231,1.231,0,0,0,.753-0.38,1.49,1.49,0,0,0,.374-0.91,2.5,2.5,0,0,0-.1-0.85,4.617,4.617,0,0,0-.637-1.31c-0.124-.18-0.282-0.37-0.394-0.52a4.322,4.322,0,0,1-.306-0.4,3.826,3.826,0,0,1-.754-1.58,3.986,3.986,0,0,1,.353-2.15,2.644,2.644,0,0,0-1.949,1.99,3.2,3.2,0,0,0,.036,1.59A4.361,4.361,0,0,0,617.451,4882.94Zm4.835,0c0.142,0.18.294,0.37,0.453,0.54l0.4,0.4c0.251,0.25.482,0.5,0.67,0.73a2.844,2.844,0,0,1,.227.31,0.673,0.673,0,0,1,.116.26,0.62,0.62,0,0,1-.155.41,2.534,2.534,0,0,1-.451.43,1.5,1.5,0,0,0,.7.08,1.238,1.238,0,0,0,.755-0.38,1.494,1.494,0,0,0,.372-0.91,2.479,2.479,0,0,0-.1-0.85,4.532,4.532,0,0,0-.633-1.31c-0.127-.18-0.284-0.37-0.395-0.52a4.03,4.03,0,0,1-.309-0.4,3.819,3.819,0,0,1-.751-1.58,3.984,3.984,0,0,1,.354-2.15,2.643,2.643,0,0,0-1.951,1.99,3.227,3.227,0,0,0,.037,1.59A4.361,4.361,0,0,0,622.286,4882.94Z" transform="translate(-599.094 -4878)"/>
</svg>
