<svg xmlns="http://www.w3.org/2000/svg" width="43.25" height="30.93" viewBox="0 0 43.25 30.93">
  <defs>
    <style>
      .cls-1 {
        fill: #f2545b;
        fill-rule: evenodd;
      }
    </style>
  </defs>
  <path id="icon-wifi" class="cls-1" d="M344.34,4896.91a0.686,0.686,0,0,0-.056-0.07,30.21,30.21,0,0,0-42.946,0,0.483,0.483,0,0,0,0,.68l3.14,3.16a0.472,0.472,0,0,0,.671,0,24.828,24.828,0,0,1,35.327,0,0.471,0.471,0,0,0,.67,0l3.14-3.16a0.479,0.479,0,0,0,.139-0.34A0.473,0.473,0,0,0,344.34,4896.91Zm-21.53-.66a21.807,21.807,0,0,0-15.6,6.52,0.474,0.474,0,0,0,0,.67l3.13,3.16a0.472,0.472,0,0,0,.671,0,16.572,16.572,0,0,1,23.588,0,0.472,0.472,0,0,0,.671,0l3.13-3.16a0.474,0.474,0,0,0,.139-0.33,0.479,0.479,0,0,0-.139-0.34A21.807,21.807,0,0,0,322.81,4896.25Zm0,8.37a13.618,13.618,0,0,0-9.726,4.06,0.485,0.485,0,0,0,0,.68l3.13,3.15a0.472,0.472,0,0,0,.671,0,8.341,8.341,0,0,1,11.85,0,0.472,0.472,0,0,0,.671,0l3.13-3.15a0.486,0.486,0,0,0,0-.68A13.618,13.618,0,0,0,322.81,4904.62Zm0,8.86a4.765,4.765,0,0,0-3.393,1.42,0.486,0.486,0,0,0,0,.68l3.058,3.08a0.471,0.471,0,0,0,.67,0l3.058-3.08a0.486,0.486,0,0,0,0-.68A4.765,4.765,0,0,0,322.81,4913.48Z" transform="translate(-301.188 -4887.88)"/>
</svg>
