<svg xmlns="http://www.w3.org/2000/svg" width="38.656" height="38.78" viewBox="0 0 38.656 38.78">
  <defs>
    <style>
      .cls-1 {
        fill: #f2545b;
        fill-rule: evenodd;
      }
    </style>
  </defs>
  <path id="icon-location" class="cls-1" d="M631.644,4984.59a19.291,19.291,0,0,0-27.231-.09l-0.087.09a19.457,19.457,0,0,0-.087,27.34l0.087,0.09a19.34,19.34,0,0,0,27.362,0,19.66,19.66,0,0,0,5.611-13.74A19.337,19.337,0,0,0,631.644,4984.59Zm-9.874,15.09-2.393,7.19-2.74-6.76a0.9,0.9,0,0,0-.479-0.48l-6.742-2.79,7.177-2.4,7.787-2.61Z" transform="translate(-598.656 -4978.91)"/>
</svg>
