<svg xmlns="http://www.w3.org/2000/svg" width="41" height="43" viewBox="0 0 41 43">
  <defs>
    <style>
      .cls-1 {
        fill: #f2545b;
        fill-rule: evenodd;
      }
    </style>
  </defs>
  <path id="icon-yard" class="cls-1" d="M838.971,4997.55v1.73a1.6,1.6,0,0,1-.846,1.43,1.575,1.575,0,0,1-1.829-.28l-1.137-1.13-1.069,1.06,2.656,2.64a1.57,1.57,0,0,1,.459,1.11v11.52a1.371,1.371,0,0,0,1.376,1.37h2.293a1.371,1.371,0,0,0,1.376-1.37v-9.79a1.526,1.526,0,0,1,.459-1.1l2.2-2.2-1.07-1.06-0.682.68a1.558,1.558,0,0,1-1.828.28,1.588,1.588,0,0,1-.847-1.43v-3.46h-1.513ZM860,4991.69a9.586,9.586,0,0,0-8.878-9.53,12.356,12.356,0,0,0-23.244,0,9.555,9.555,0,0,0-6.046,16.32,8.2,8.2,0,0,0-.11,1.34,8.435,8.435,0,0,0,8.444,8.41h5.017v-3.94l-2.844-2.83a1.546,1.546,0,0,1,0-2.2l1.711-1.71a1.589,1.589,0,0,1,2.216,0l0.683,0.68v-1.14a1.563,1.563,0,0,1,1.567-1.55h2.421a1.563,1.563,0,0,1,1.567,1.55v2.88l0.228-.23a1.564,1.564,0,0,1,2.216,0l1.712,1.7h0a1.561,1.561,0,0,1,0,2.21l-2.389,2.38v2.2h4.562a8.435,8.435,0,0,0,8.444-8.41,8.2,8.2,0,0,0-.11-1.34A9.524,9.524,0,0,0,860,4991.69Z" transform="translate(-819 -4974)"/>
</svg>
