<svg xmlns="http://www.w3.org/2000/svg" width="28.062" height="35.06" viewBox="0 0 28.062 35.06">
  <defs>
    <style>
      .cls-1 {
        fill: #f2545b;
        fill-rule: evenodd;
      }
    </style>
  </defs>
  <path id="icon-laundry" class="cls-1" d="M850.312,4886.44H828.854a3.656,3.656,0,0,0-3.38,3.44v26.2c0,1.71,1.387,3.61,3.1,3.61h1.455v0.66a1.164,1.164,0,0,0,1.188,1.16h1.42a1.157,1.157,0,0,0,1.18-1.16v-0.66h11.364v0.66a1.156,1.156,0,0,0,1.18,1.16h1.42a1.163,1.163,0,0,0,1.188-1.16v-0.66h1.364c1.714,0,3.19-1.9,3.19-3.61V4889.9A3.523,3.523,0,0,0,850.312,4886.44Zm-21.72,4.64V4890a0.936,0.936,0,0,1,.953-0.95H832.9a0.949,0.949,0,0,1,.969.95v1.08a0.974,0.974,0,0,1-.969.98h-3.356A0.961,0.961,0,0,1,828.592,4891.08Zm10.846,22.73a10.1,10.1,0,1,1,10.122-10.1A10.11,10.11,0,0,1,839.438,4913.81Zm0-17.8a7.705,7.705,0,1,0,7.722,7.7A7.712,7.712,0,0,0,839.438,4896.01Zm0,12.34a4.635,4.635,0,1,1,4.643-4.64A4.646,4.646,0,0,1,839.438,4908.35Zm-1.938-6.14a2.719,2.719,0,0,0-.974,2.09,2.761,2.761,0,0,0,5.356.94A7.65,7.65,0,0,1,837.5,4902.21Z" transform="translate(-825.469 -4886.44)"/>
</svg>
