<svg id="Layer_1" data-name="Layer 1" xmlns="http://www.w3.org/2000/svg" viewBox="0 0 46.81 42"><defs><style>.cls-1{fill:#f2545b;}</style></defs><title>Icon-Rooftop</title><path class="cls-1" d="M19.53,0h-.28V42H24V35.92a2.61,2.61,0,0,1,5.22,0V42H34V0H19.53Zm11.9,31.43H21.8V30.1h9.63v1.33Zm0-4.7H21.8V25.4h9.63v1.33Zm0-4.7H21.8V20.7h9.63V22Zm0-4.7H21.8V16h9.63v1.33Zm0-4.7H21.8V11.29h9.63v1.33Zm0-4.7H21.8V6.59h9.63V7.91Zm0-4.7H21.8V1.88h9.63V3.21Z"/><path class="cls-1" d="M0,42H17.93V24.07H0ZM13.12,25h1.33v3.21H13.12Zm0,4.81h1.33V33H13.12Zm0,4.81h1.33v3.21H13.12ZM8.3,25H9.63v3.21H8.3Zm0,4.81H9.63V33H8.3Zm0,4.81H9.63v3.21H8.3ZM3.49,25H4.81v3.21H3.49Zm0,4.81H4.81V33H3.49Zm0,4.81H4.81v3.21H3.49Z"/><rect class="cls-1" y="20.86" width="17.93" height="1.88"/><path class="cls-1" d="M26.62,34.64a1.28,1.28,0,0,0-1.28,1.28v5.69H27.9V35.92A1.28,1.28,0,0,0,26.62,34.64Z"/><rect class="cls-1" x="35.3" y="6.42" width="11.51" height="1.88"/><path class="cls-1" d="M35.3,42H46.81V9.63H35.3Zm8.3-29.82h1.33v3.21H43.6Zm0,4.81h1.33V20.2H43.6Zm0,4.81h1.33V25H43.6Zm0,9.63h1.33v3.21H43.6Zm0,4.81h1.33v3.21H43.6ZM40.39,12.17h1.33v3.21H40.39Zm0,4.81h1.33V20.2H40.39Zm0,4.81h1.33V25H40.39Zm0,9.63h1.33v3.21H40.39Zm0,4.81h1.33v3.21H40.39ZM37.19,12.17h1.33v3.21H37.19Zm0,4.81h1.33V20.2H37.19Zm0,4.81h1.33V25H37.19Zm0,9.63h1.33v3.21H37.19Zm0,4.81h1.33v3.21H37.19Z"/><polygon class="cls-1" points="17.93 0 17.93 19.53 16.31 19.53 16.31 3.2 14.98 3.2 14.98 19.53 13.1 19.53 13.1 3.2 11.77 3.2 11.77 19.53 9.89 19.53 9.89 3.2 8.56 3.2 8.56 19.53 6.02 19.53 6.02 0 17.93 0"/></svg>