<svg xmlns="http://www.w3.org/2000/svg" width="32.187" height="32.31" viewBox="0 0 32.187 32.31">
	<defs>
    <style>
      .cls-1 {
        fill: #f2545b;
        fill-rule: evenodd;
      }
    </style>
  </defs>
  <path id="icon-building" class="cls-1" d="M319.929,5007.92h5.291v6.77h-5.291v-6.77Zm-13.469-23.25v30.02h11.727v-7.74a0.925,0.925,0,0,1,.867-0.98h7a0.926,0.926,0,0,1,.868.98v7.74H338.65v-30.02a2.285,2.285,0,0,0-2.274-2.29H308.733A2.285,2.285,0,0,0,306.46,4984.67ZM314,5003h-3.55v-3.56H314V5003Zm0-6.66h-3.55v-3.57H314v3.57Zm0-6.67h-3.55v-3.59H314v3.59ZM320.9,5003h-3.576v-3.56h3.55V5003H320.9Zm0-6.66h-3.576v-3.57h3.55v3.57H320.9Zm0-6.67h-3.576v-3.59h3.55v3.59H320.9Zm6.9,13.33h-3.576v-3.56h3.55V5003H327.8Zm0-6.66h-3.576v-3.57h3.55v3.57H327.8Zm0-6.67h-3.576v-3.59h3.55v3.59H327.8Zm6.876,13.33h-3.55v-3.56h3.55V5003Zm0-6.66h-3.55v-3.57h3.55v3.57Zm0-6.67h-3.55v-3.59h3.55v3.59Z" transform="translate(-306.469 -4982.38)"/>
</svg>
