<svg xmlns="http://www.w3.org/2000/svg" width="48.75" height="28.15" viewBox="0 0 48.75 28.15">
  <defs>
    <style>
      .cls-1 {
        fill: #f2545b;
        fill-rule: evenodd;
      }
    </style>
  </defs>
  <path id="icon-parking" class="cls-1" d="M1093.69,4905.66c-1.48-14.1-9.24-15.97-18.59-15.97-7.28,0-13.59,1.14-16.73,8.3v-0.01s-6.58,3.07-8.88,3.71c-0.96.27-1.56,1.89-1.93,3.71a3.993,3.993,0,0,0-1.46,3.08,4.05,4.05,0,0,0,.83,2.43v0.02h0.02a3.993,3.993,0,0,0,3.16,1.57h0.14a6.815,6.815,0,0,1,.19-1.57,6.919,6.919,0,0,1,6.08-5.34c0.21-.02.43-0.03,0.65-0.03a6.779,6.779,0,0,1,1.2.11,6.927,6.927,0,0,1,5.53,5.26,7.407,7.407,0,0,1,.18,1.57h13.23a7.407,7.407,0,0,1,.18-1.57,6.9,6.9,0,0,1,13.46,0,7.133,7.133,0,0,1,.19,1.54A4.011,4.011,0,0,0,1093.69,4905.66Zm-4.14,6.84a5.424,5.424,0,0,0-.24-1.57,5.31,5.31,0,0,0-10.17,0,5.424,5.424,0,0,0-.24,1.57A5.325,5.325,0,1,0,1089.55,4912.5Zm-8.23,0a2.905,2.905,0,1,1,2.91,2.92A2.892,2.892,0,0,1,1081.32,4912.5Zm-24.15,5.34a5.335,5.335,0,0,0,5.32-5.34,5.42,5.42,0,0,0-.23-1.57,5.407,5.407,0,0,0-5.09-3.78,5.156,5.156,0,0,0-.79.07,5.336,5.336,0,0,0-4.3,3.71,5.42,5.42,0,0,0-.23,1.57A5.328,5.328,0,0,0,1057.17,4917.84Zm-2.45-6.91a2.924,2.924,0,0,1,1.55-1.19,2.7,2.7,0,0,1,.9-0.16,2.85,2.85,0,0,1,1.2.27,2.953,2.953,0,0,1,1.71,2.65,2.91,2.91,0,1,1-5.82,0A2.892,2.892,0,0,1,1054.72,4910.93Z" transform="translate(-1046.09 -4889.69)"/>
</svg>
