<svg xmlns="http://www.w3.org/2000/svg" width="38.62" height="38.78" viewBox="0 0 38.62 38.78">
  <defs>
    <style>
      .cls-1 {
        fill: #f2545b;
        fill-rule: evenodd;
      }
    </style>
  </defs>
  <path id="icon-checkout" class="cls-1" d="M1083.92,5000.02a0.94,0.94,0,0,1,0-1.88h0.99a14.328,14.328,0,0,0-3.55-8.53l-0.68.68a0.918,0.918,0,0,1-1.32,0,0.924,0.924,0,0,1,0-1.32l0.67-.68a14.125,14.125,0,0,0-8.41-3.49v1a0.935,0.935,0,1,1-1.87,0v-1a14.231,14.231,0,0,0-8.44,3.51l0.74,0.74a0.942,0.942,0,0,1,0,1.32,0.918,0.918,0,0,1-1.32,0l-0.74-.73a14.238,14.238,0,0,0-3.52,8.5h1.1a0.94,0.94,0,0,1,0,1.88h-1.1a14.215,14.215,0,0,0,3.47,8.44l0.79-.8a0.942,0.942,0,0,1,1.32,0,0.954,0.954,0,0,1,0,1.33l-0.8.8a14.158,14.158,0,0,0,8.5,3.56v-1.11a0.935,0.935,0,1,1,1.87,0v1.11a14.113,14.113,0,0,0,8.47-3.54l-0.73-.74a0.937,0.937,0,0,1,1.32-1.33l0.73,0.74a14.252,14.252,0,0,0,3.5-8.46h-0.99Zm-6.94,0h-6.29a0.939,0.939,0,0,1-.94-0.94v-9.09a0.935,0.935,0,1,1,1.87,0v8.15h5.36A0.94,0.94,0,0,1,1076.98,5000.02Zm-6.29-20.33a19.385,19.385,0,1,0,19.31,19.39A19.38,19.38,0,0,0,1070.69,4979.69Zm0,35.57a16.185,16.185,0,1,1,16.12-16.18A16.177,16.177,0,0,1,1070.69,5015.26Z" transform="translate(-1051.38 -4979.69)"/>
</svg>
