<svg id="Layer_1" data-name="Layer 1" xmlns="http://www.w3.org/2000/svg" viewBox="0 0 21 39"><defs><style>.cls-1{fill:#f2545b;}</style></defs><title>icon-refrigerator</title><path class="cls-1" d="M0,13.5v21a3,3,0,0,0,3,3v.74a.74.74,0,0,0,.75.76.76.76,0,0,0,.75-.76V37.5h12v.74a.74.74,0,0,0,.75.76.76.76,0,0,0,.75-.76V37.5a3,3,0,0,0,3-3v-21ZM0,12V3A3,3,0,0,1,3,0H18a3,3,0,0,1,3,3v9Zm17.25,3a.74.74,0,0,1,.75.74v3a.75.75,0,0,1-.75.74.74.74,0,0,1-.75-.74v-3A.75.75,0,0,1,17.25,15Zm0-7.5a.74.74,0,0,1,.75.76V9.74a.76.76,0,0,1-.75.76.74.74,0,0,1-.75-.76V8.26A.76.76,0,0,1,17.25,7.5Z"/></svg>