<svg id="Layer_1" data-name="Layer 1" xmlns="http://www.w3.org/2000/svg" viewBox="0 0 33.19 38.73"><defs><style>.cls-1{fill:#f2545b;}</style></defs><title>icon-coffee</title><path class="cls-1" d="M27.35,31.44H17.68c-.8,0-1.54-.3-1.44-1.48L17,19.72l-1.42-1.13.39-1H26.6a1.35,1.35,0,0,1,1.27.9,2.52,2.52,0,0,1,.18,1l0,.48h0L28.14,21l.21,3.63.3,5.21C28.66,30.54,28.64,31.39,27.35,31.44Z"/><path class="cls-1" d="M27.35,30.81H17.48s-.19,0,0,0l-.14,0-.13,0-.08,0h0L17,30.66c-.12-.08.1.09,0,0l-.09-.09c.1.12,0,0,0,0s0,.12,0,0a1.28,1.28,0,0,1,0-.15c0-.17,0,.12,0-.07a2.11,2.11,0,0,1,0-.26c0-.07,0-.14,0-.21l.49-7,.2-2.86,0-.22c0-.29-.16-.44-.36-.59l-1.24-1,.16.59.39-1-.59.45H26.66c.18,0-.11,0,.06,0,0,0,.23.08.12,0l.15.08c.15.09-.08-.07.06,0l.12.13c-.07-.08,0,.07,0,.08a1.59,1.59,0,0,1,.2.66c0,.24,0,.48,0,.72l.61-.61h0a.61.61,0,0,0-.61.61c.15,1.76.23,3.53.33,5.29L28,28.91l.05.89a3.93,3.93,0,0,1,0,.49s0,.18,0,0l0,.12c0,.05-.1.28,0,.11l-.06.1c-.07.12.09-.1,0,0l-.09.08c.12-.1,0,0,0,0s-.16.07,0,0l-.15,0s-.19,0-.08,0h-.2a.61.61,0,0,0,0,1.22,2,2,0,0,0,1.47-.57,2,2,0,0,0,.44-1.25,9.72,9.72,0,0,0,0-1.07L29,25.23c-.1-1.77-.18-3.55-.33-5.32h0l-.61.61h0a.61.61,0,0,0,.61-.61,10.7,10.7,0,0,0-.1-1.18,2.27,2.27,0,0,0-1-1.51,2.24,2.24,0,0,0-1.28-.28H15.92a.63.63,0,0,0-.59.45l-.39,1a.59.59,0,0,0,.16.59l1.42,1.13-.18-.43-.43,6.13-.24,3.48,0,.62a2,2,0,0,0,.4,1.44,1.78,1.78,0,0,0,1.16.6,17.45,17.45,0,0,0,2.3,0h7.86a.61.61,0,0,0,0-1.22Z"/><path class="cls-1" d="M32.75,20.53a2.27,2.27,0,0,0-2.26-2.27H27.86v.19a2.53,2.53,0,0,1,.18,1l0,.48h2c.8,0,1,.25,1,1l.37,5.84c0,.8-.23,1-1,1H28.72L28.14,21l.21,3.63.38,4.94h2.22a2.26,2.26,0,0,0,2.26-2.26ZM28,19.91,28.14,21l-.06-1.06Z"/><path class="cls-1" d="M22.73,14.1s0,0,0,0a.87.87,0,0,1-.86.83h-.35a.86.86,0,0,1-.86-.83v0"/><path class="cls-1" d="M22.12,14.1c0,.15,0-.12,0,.06s.05-.08,0,.07.07-.07,0,.06.09,0-.05,0,.1,0-.06,0,.1,0-.07,0h-.35c-.18,0,.1,0-.07,0s.08.05-.06,0,.07.07-.05,0,0,.08,0-.06,0,.09,0-.07,0,.06,0,0a.61.61,0,0,0-1.22,0,1.51,1.51,0,0,0,.63,1.2,1.64,1.64,0,0,0,1,.27,1.62,1.62,0,0,0,1-.27,1.54,1.54,0,0,0,.63-1.22.61.61,0,0,0-1.22,0Z"/><path class="cls-1" d="M27.65,11.68a2.46,2.46,0,0,1-2.37,2.47H18.12a2.46,2.46,0,0,1-2.37-2.47"/><path class="cls-1" d="M27,11.68c0,.06,0,.12,0,.18s0-.11,0,.08a2.48,2.48,0,0,1-.09.35s-.07.19,0,.08l-.08.16a2.57,2.57,0,0,1-.22.35c.07-.1,0,.05-.05.06l-.12.13-.13.12c-.14.12.09-.06-.06,0a1.42,1.42,0,0,1-.6.28l-.17,0c.13,0-.07,0-.08,0H17.93c-.19,0,.11,0-.07,0a1.46,1.46,0,0,1-.51-.18,1.84,1.84,0,0,1-.7-.66,2.56,2.56,0,0,1-.14-.26v0l-.06-.17a2.5,2.5,0,0,1-.07-.29c0-.19,0,.12,0-.08s0-.12,0-.18a.61.61,0,0,0-1.22,0,3.17,3.17,0,0,0,1.65,2.75,4.08,4.08,0,0,0,2,.34h6a3.61,3.61,0,0,0,2-.42,3.17,3.17,0,0,0,1.49-2.66.61.61,0,0,0-1.22,0Z"/><path class="cls-1" d="M15.18,33.71a3.53,3.53,0,0,1-3.53-3.54V19.52H1.76L1,35.94a2.15,2.15,0,0,0,2.07,2.18H28a2.15,2.15,0,0,0,2.07-2.18h0V33.71ZM.61.61,1.87,17.38h9.78V14.26a2.64,2.64,0,0,1,2.63-2.65H29.59l1.28-11ZM7.76,12.33a1.11,1.11,0,0,1-2.23,0V4.87a1.11,1.11,0,0,1,2.23,0Z"/><path class="cls-1" d="M15.18,33.1l-.37,0h-.08l-.17,0-.34-.09-.16-.06h0l-.1,0a3.53,3.53,0,0,1-.59-.36c.1.07,0,0-.05,0l-.13-.12A3.55,3.55,0,0,1,12.9,32c-.12-.14.07.09,0-.06l-.1-.14c-.06-.1-.12-.2-.18-.3l-.08-.16c-.08-.17,0,.11,0-.07a3.52,3.52,0,0,1-.2-.74c0,.13,0-.07,0-.08s0-.12,0-.18,0-.1,0-.15V19.52a.62.62,0,0,0-.61-.61H1.76a.62.62,0,0,0-.61.61L.93,24.23.54,32.55.41,35.33l0,.57A2.82,2.82,0,0,0,1.31,38a2.67,2.67,0,0,0,1.8.69H28a2.79,2.79,0,0,0,2.7-2.79l-.61.61h0a.62.62,0,0,0,.61-.61V33.71a.62.62,0,0,0-.61-.61H15.18a.61.61,0,0,0,0,1.22H30.12l-.61-.61v2.23l.61-.61h0a.62.62,0,0,0-.61.61c0,.06,0,.12,0,.18s0-.11,0,.08a2.24,2.24,0,0,1-.1.34c-.06.18,0-.1,0,.07l-.08.15-.09.15h0l-.08.09-.12.12s-.15.13-.05.05a2.07,2.07,0,0,1-.29.18s-.18.08-.06,0l-.16.05-.17,0H2.94c-.19,0,.11,0-.07,0l-.17,0-.16-.05c.11,0-.09,0-.11-.06a1.57,1.57,0,0,1-.73-.86,2.25,2.25,0,0,1-.09-.35c0,.12,0-.07,0-.08s0-.1,0-.12v-.22l.29-6.1.37-8,.1-2.09-.61.61h9.89L11,19.52V30.11a4.29,4.29,0,0,0,.57,2.17,4.18,4.18,0,0,0,3.57,2,.61.61,0,1,0,0-1.22Z"/><path class="cls-1" d="M7.15,12.33c0,.19,0-.11,0,.08,0,0-.06.19,0,.07a1.11,1.11,0,0,1-.08.15c.06-.1,0,0,0,.05a.47.47,0,0,1-.43.14c.09,0-.11,0-.11,0s-.09,0-.1,0a.43.43,0,0,1-.15-.15.41.41,0,0,1-.08-.28V4.87s0-.12,0,0a1.1,1.1,0,0,1,0-.17c0,.11,0,0,0-.06s-.07.07,0-.06l.12-.12c-.09.08.06,0,.07,0s-.1,0,.07,0l.12,0q-.09,0,0,0a.51.51,0,0,1,.5.51v7.45h0a.61.61,0,0,0,1.22,0V4.89a1.73,1.73,0,0,0-.6-1.32,1.76,1.76,0,0,0-1.94-.21,1.8,1.8,0,0,0-.9,1.71v7.24a1.73,1.73,0,0,0,.6,1.32,1.76,1.76,0,0,0,1.94.21,1.74,1.74,0,0,0,.9-1.52.61.61,0,1,0-1.22,0Z"/><path class="cls-1" d="M0,.61.35,5.24,1,13.59l.28,3.79a.62.62,0,0,0,.61.61h9.78a.62.62,0,0,0,.61-.61V14.31c0-.1,0-.19,0-.29s0,.12,0-.07,0-.12,0-.17l0-.17s.09-.23,0-.12a2.65,2.65,0,0,1,.16-.3l.1-.14c.11-.15-.07.09,0-.06a2.66,2.66,0,0,1,.24-.25l.13-.11c-.09.07.09-.06.11-.07a2.62,2.62,0,0,1,.3-.16c-.11.05.06,0,.07,0l.17-.05.17,0s.2,0,.07,0l.3,0H29.59a.62.62,0,0,0,.61-.61l.69-5.91L31.49.61A.61.61,0,0,0,30.88,0H.61A.62.62,0,0,0,0,.61a.62.62,0,0,0,.61.61H30.88L30.26.61l-.69,5.91L29,11.61l.61-.61H14.39a3.54,3.54,0,0,0-1.62.37A3.3,3.3,0,0,0,11.05,14a17,17,0,0,0,0,1.72v1.65l.61-.61H1.87l.61.61-.35-4.63L1.51,4.4,1.22.61A.62.62,0,0,0,.61,0,.61.61,0,0,0,0,.61Z"/></svg>