<svg id="Layer_1" data-name="Layer 1" xmlns="http://www.w3.org/2000/svg" viewBox="0 0 40.91 41.06"><defs><style>.cls-1{fill:#f2545b;}</style></defs><title>icon-tv</title><path class="cls-1" d="M1.86,30.06H39a.22.22,0,0,0,.22-.22V8.66A.22.22,0,0,0,39,8.45H1.86a.22.22,0,0,0-.21.22V29.84A.22.22,0,0,0,1.86,30.06Z"/><path class="cls-1" d="M40.37,6.8H.54A.54.54,0,0,0,0,7.34V31.17a.54.54,0,0,0,.54.54H8.17v1.13a1.33,1.33,0,0,0,1.2,1.42H31.59a1.33,1.33,0,0,0,1.2-1.42V31.71h7.57a.54.54,0,0,0,.54-.54V7.34A.54.54,0,0,0,40.37,6.8Zm-8.65,26a.43.43,0,0,1-.13.34H9.38a.43.43,0,0,1-.13-.34V31.71H31.72Zm8.11-2.21H1.08V7.88H39.82Z"/></svg>